<svg id="Layer_1" enable-background="new 0 0 100 100" viewBox="0 0 100 100" xmlns="http://www.w3.org/2000/svg"><path d="m74.5695953 58.5849609c11.0074921 2.1711273 18.4747849 7.9796524 22.5266037 17.2867966.6487427 1.501358.5114136 3.317337-.3803711 4.8749542-2.8298111 4.9523087-6.0007401 9.7185822-9.5103378 14.2547073-1.341301 1.7436523-3.4587631 2.6957245-5.488472 2.4642487-18.3910675-2.0980759-37.3538895-11.0463409-52.7450867-26.4375381s-24.3394679-34.3540192-26.4376268-52.7451725c-.2313895-2.0296211.7206817-4.1470814 2.4643331-5.4883833 4.5361295-3.5095987 9.3024006-6.6805282 14.2546215-9.5104265 1.557703-.8916948 3.3736019-1.029108 4.8749542-.3803666 9.30723 4.0519056 15.1156712 11.5191116 17.2867985 22.5266037.3183708 1.6515484-.199295 3.4592361-1.3603134 4.856144l-8.085968 9.6951923c-1.583683 1.8888321-1.9164448 4.4550018-.8004684 6.3771324 5.5066528 9.4752541 12.9976082 16.9662056 22.4729462 22.4729424 1.9221306 1.1159744 4.4883003.7832184 6.3840752-.7935257l9.6882477-8.092907c1.3969119-1.1610191 3.2045978-1.6786849 4.8560641-1.3604019z"/></svg>