<svg id="Layer_3" height="512" viewBox="0 0 24 24" width="512" xmlns="http://www.w3.org/2000/svg" data-name="Layer 3"><circle cx="4" cy="6" r="3"/><path d="m7.29 11.07a6.991 6.991 0 0 0 -3.29 5.93h-2a2.006 2.006 0 0 1 -2-2v-2a3.009 3.009 0 0 1 3-3h2a3 3 0 0 1 2.29 1.07z"/><circle cx="20" cy="6" r="3"/><path d="m24 13v2a2.006 2.006 0 0 1 -2 2h-2a6.991 6.991 0 0 0 -3.29-5.93 3 3 0 0 1 2.29-1.07h2a3.009 3.009 0 0 1 3 3z"/><circle cx="12" cy="7" r="4"/><path d="m18 17v1a3.009 3.009 0 0 1 -3 3h-6a3.009 3.009 0 0 1 -3-3v-1a5 5 0 0 1 5-5h2a5 5 0 0 1 5 5z"/></svg>