<svg width="50" height="50" viewBox="0 0 50 50" fill="none" xmlns="http://www.w3.org/2000/svg">
<path d="M24.999 2.0625C30.8903 2.06917 36.5464 4.33933 40.8037 8.39062L41.2119 8.78809C45.3779 12.954 47.7776 18.5565 47.9297 24.4316L47.9375 25.001C47.9373 29.3954 46.6748 33.6942 44.3047 37.3877L44.0723 37.7432C41.6306 41.3974 38.192 44.271 34.1689 46.0254L33.7773 46.1914C29.7171 47.8731 25.262 48.3526 20.9424 47.5762L20.5254 47.4971C16.2149 46.6397 12.2444 44.5621 9.08398 41.5166L8.78027 41.2197C5.67256 38.112 3.52561 34.1787 2.58984 29.8906L2.50292 29.4746C1.64561 25.1643 2.04525 20.7014 3.64941 16.6162L3.80859 16.2227C5.49037 12.1625 8.30197 8.67346 11.9053 6.16797L12.2568 5.92773C16.0285 3.40766 20.4629 2.06269 24.999 2.0625ZM28.124 13.582C27.651 13.5779 27.1928 13.7361 26.8252 14.0273L26.6728 14.1602L26.667 14.167L17.292 23.542C16.9053 23.9288 16.6875 24.4531 16.6875 25C16.6875 25.4784 16.8539 25.9397 17.1543 26.3066L17.292 26.458L26.667 35.833C26.8083 35.9781 26.9698 36.1016 27.1465 36.1992L27.3301 36.2891C27.5188 36.3701 27.7184 36.4223 27.9219 36.4443L28.126 36.457C28.3315 36.4588 28.5361 36.4295 28.7324 36.3711L28.9248 36.3027C29.115 36.2249 29.2928 36.1199 29.4512 35.9902L29.6025 35.8525C29.7478 35.7073 29.8699 35.5412 29.9658 35.3604L30.0527 35.1748C30.1305 34.9848 30.1797 34.7848 30.1982 34.5811L30.207 34.376C30.2052 34.1707 30.172 33.9674 30.1103 33.7725L30.0391 33.5801C29.958 33.3914 29.8491 33.2166 29.7168 33.0605L29.5771 32.9111L21.666 25L29.5889 17.0771C29.9646 16.6882 30.1727 16.1668 30.168 15.626C30.1638 15.1529 29.9979 14.6975 29.7002 14.335L29.5644 14.1855C29.1821 13.8032 28.6647 13.5868 28.124 13.582Z" fill="#FFDD00" fill-opacity="0.29" stroke="#FFDD00"/>
</svg>
