<svg clip-rule="evenodd" fill-rule="evenodd" stroke-linejoin="round" stroke-miterlimit="2" viewBox="0 0 510 510" xmlns="http://www.w3.org/2000/svg"><path d="m360.084 158.307h-345.084v-32.133c0-18.696 15.248-33.943 33.943-33.943h2.077v23.161c0 13.489 11 24.486 24.485 24.486h16.827c13.485 0 24.485-11.001 24.485-24.486v-23.161h28.554v23.161c0 13.489 11 24.486 24.485 24.486h16.826c13.486 0 24.485-11.001 24.485-24.486v-23.161h28.555v23.161c0 13.489 11 24.486 24.485 24.486h16.826c13.484 0 24.487-11.002 24.487-24.486v-23.161h28.554v23.161c0 13.489 10.998 24.486 24.484 24.486h16.826c13.485 0 24.485-11.001 24.485-24.486v-23.161h2.078c18.695 0 33.942 15.247 33.942 33.943v16.572c-6.583-1.444-13.417-2.204-20.422-2.204-20.615 0-39.742 6.587-55.383 17.765zm75.805 171.122v31.313c0 2.085-.166 4.105-.497 6.06h-62.296c-9.081 0-16.486 7.405-16.486 16.485v62.296c-1.954.331-3.974.497-6.06.497h-301.607c-18.695 0-33.943-15.248-33.943-33.942v-237.831h327.676c-14.188 16.681-22.767 38.268-22.767 61.792 0 52.626 42.931 95.533 95.558 95.533 7.005 0 13.839-.76 20.422-2.203zm-268.817 95.791c63.193 0 114.737-51.545 114.737-114.738 0-63.224-51.544-114.769-114.737-114.769-63.224 0-114.769 51.545-114.769 114.769 0 63.193 51.545 114.738 114.769 114.738zm.001-211.03c53.146 0 96.259 43.114 96.259 96.293 0 53.146-43.113 96.26-96.259 96.26-53.179 0-96.293-43.114-96.293-96.26 0-53.179 43.114-96.293 96.293-96.293zm-8.001 25.126v7.724c0 4.415 3.584 8 8 8 4.415 0 8-3.585 8-8v-7.724c0-4.415-3.585-8-8-8-4.416 0-8 3.585-8 8zm63.956 115.808-5.451-5.45c-3.122-3.122-8.191-3.122-11.313 0-3.123 3.122-3.123 8.191 0 11.314l5.45 5.45c3.122 3.122 8.191 3.122 11.314 0 3.122-3.122 3.122-8.192 0-11.314zm-47.956 26.493v-7.693c0-4.415-3.585-8-8-8-4.416 0-8 3.585-8 8v7.693c0 4.415 3.584 8 8 8 4.415 0 8-3.585 8-8zm-16-104.958v33.823c0 2.858 1.525 5.499 4 6.928l22.549 13.019c3.823 2.207 8.72.895 10.928-2.928 2.208-3.824.895-8.721-2.928-10.929l-18.549-10.709v-29.204c0-4.416-3.585-8-8-8-4.416 0-8 3.584-8 8zm52.642-22.164-5.45 5.45c-3.123 3.123-3.123 8.192 0 11.314 3.122 3.122 8.191 3.122 11.313 0l5.451-5.45c3.122-3.122 3.122-8.192 0-11.314-3.123-3.122-8.192-3.122-11.314 0zm-89.316 111.943 5.451-5.45c3.122-3.123 3.122-8.192 0-11.314s-8.192-3.122-11.314 0l-5.45 5.45c-3.122 3.122-3.122 8.192 0 11.314s8.191 3.122 11.313 0zm-26.492-47.956h7.724c4.415 0 8-3.585 8-8s-3.585-8-8-8h-7.724c-4.416 0-8 3.585-8 8s3.584 8 8 8zm142.301-16h-7.693c-4.415 0-8 3.585-8 8s3.585 8 8 8h7.693c4.415 0 8-3.585 8-8s-3.585-8-8-8zm-127.122-36.673 5.45 5.45c3.122 3.122 8.192 3.122 11.314 0s3.122-8.191 0-11.314l-5.451-5.45c-3.122-3.122-8.191-3.122-11.313 0s-3.122 8.192 0 11.314zm316.674 116.992c-.574.66-1.177 1.307-1.811 1.941l-51.396 51.397c-.634.634-1.282 1.238-1.942 1.812v-54.664c0-.268.218-.486.486-.486zm-352.254-318.881h16.827c4.673 0 8.485 3.812 8.485 8.485v42.987c0 4.673-3.812 8.486-8.485 8.486h-16.827c-4.673 0-8.485-3.812-8.485-8.486v-42.987c0-4.673 3.812-8.485 8.485-8.485zm283.053 0h16.826c4.673 0 8.485 3.812 8.485 8.485v42.987c0 4.673-3.812 8.486-8.485 8.486h-16.826c-4.674 0-8.484-3.812-8.484-8.486v-42.987c0-4.673 3.81-8.485 8.484-8.485zm-94.351 0h16.826c4.674 0 8.487 3.812 8.487 8.485v42.987c0 4.673-3.813 8.486-8.487 8.486h-16.826c-4.674 0-8.485-3.812-8.485-8.486v-42.987c0-4.673 3.811-8.485 8.485-8.485zm-94.351 0h16.826c4.674 0 8.485 3.812 8.485 8.485v42.987c0 4.673-3.811 8.486-8.485 8.486h-16.826c-4.673 0-8.485-3.812-8.485-8.486v-42.987c0-4.673 3.812-8.485 8.485-8.485zm245.611 251.712c-43.814 0-79.558-35.72-79.558-79.533 0-43.814 35.744-79.557 79.558-79.557 43.813 0 79.533 35.743 79.533 79.557 0 43.813-35.72 79.533-79.533 79.533zm-10.444-72.532-17.776-17.777c-4.605-4.604-12.081-4.604-16.686 0-4.604 4.629-4.604 12.081 0 16.686l26.132 26.155c4.604 4.604 12.08 4.604 16.685 0 15.759-15.76 31.329-31.685 47.017-47.516 4.581-4.628 4.557-12.081-.047-16.662-4.604-4.58-12.081-4.557-16.661.048z"/></svg>