<svg id="Capa_1" enable-background="new 0 0 512 512" height="512" viewBox="0 0 512 512" width="512" xmlns="http://www.w3.org/2000/svg"><circle cx="256" cy="316" r="30"/><path d="m311 431c0-30.327-24.673-55-55-55s-55 24.673-55 55v5h110z"/><path d="m0 457c0 30.327 24.673 55 55 55h402c30.327 0 55-24.673 55-55v-247h-512zm171-26c0-31.171 16.877-58.461 41.963-73.255-10.488-10.809-16.963-25.531-16.963-41.745 0-33.084 26.916-60 60-60s60 26.916 60 60c0 16.214-6.475 30.936-16.962 41.745 25.085 14.794 41.962 42.084 41.962 73.255v20c0 8.284-6.716 15-15 15h-140c-8.284 0-15-6.716-15-15z"/><path d="m457 60h-2.198c-2.181-13.603-7.308-26.194-14.983-36.426-11.235-14.982-27.207-23.574-43.819-23.574s-32.584 8.592-43.819 23.574c-7.675 10.232-12.803 22.823-14.983 36.426h30.591c4.223-17.28 15.437-30 28.212-30s23.989 12.72 28.212 30h-56.423c-1.154 4.716-1.79 9.77-1.79 15 0 24.393 13.738 45 30 45 8.284 0 15 6.716 15 15s-6.716 15-15 15c-16.612 0-32.584-8.592-43.819-23.574-10.435-13.911-16.181-32.175-16.181-51.426 0-5.091.413-10.109 1.198-15h-22.395c-2.181-13.603-7.308-26.194-14.983-36.426-11.236-14.982-27.208-23.574-43.82-23.574s-32.584 8.592-43.819 23.574c-7.675 10.232-12.802 22.823-14.983 36.426h30.591c4.223-17.28 15.437-30 28.212-30s23.989 12.72 28.212 30h-56.423c-1.154 4.716-1.79 9.77-1.79 15 0 24.393 13.738 45 30 45 8.284 0 15 6.716 15 15s-6.716 15-15 15c-16.612 0-32.584-8.592-43.819-23.574-10.435-13.911-16.181-32.175-16.181-51.426 0-5.091.413-10.109 1.198-15h-22.395c-2.181-13.603-7.308-26.194-14.983-36.426-11.236-14.982-27.208-23.574-43.82-23.574s-32.584 8.592-43.819 23.574c-7.675 10.232-12.802 22.823-14.983 36.426h30.591c4.222-17.28 15.436-30 28.211-30s23.989 12.72 28.212 30h-56.424c-1.152 4.716-1.788 9.77-1.788 15 0 24.393 13.738 45 30 45 8.284 0 15 6.716 15 15s-6.716 15-15 15c-16.612 0-32.584-8.592-43.819-23.574-10.435-13.911-16.181-32.175-16.181-51.426 0-5.091.413-10.109 1.198-15h-2.198c-30.327 0-55 24.673-55 55v65h512v-65c0-30.327-24.673-55-55-55z"/></svg>