<svg height="512" viewBox="0 0 64 64" width="512" xmlns="http://www.w3.org/2000/svg"><g id="_x32_9_Change_Picture"><g><path d="m31 30c3.859 0 7-3.141 7-7s-3.141-7-7-7-7 3.141-7 7 3.141 7 7 7z"/><path d="m36 32h-10c-3.859 0-7 3.141-7 7v2c0 1.654 1.346 3 3 3h18c1.654 0 3-1.346 3-3v-2c0-3.859-3.141-7-7-7z"/><circle cx="54" cy="56" r="2"/><path d="m61 49h-2.399l-.208-1.039c-.216-1.078-1.293-1.961-2.393-1.961h-4c-1.1 0-2.177.883-2.393 1.961l-.208 1.039h-2.399c-1.65 0-3 1.35-3 3v9c0 1.65 1.35 3 3 3h14c1.65 0 3-1.35 3-3v-9c0-1.65-1.35-3-3-3zm-7 11c-2.206 0-4-1.794-4-4s1.794-4 4-4 4 1.794 4 4-1.794 4-4 4z"/><path d="m5 31c0-14.337 11.663-26 26-26s26 11.663 26 26c0 4.737-1.291 9.171-3.515 13h2.515c.968 0 1.902.359 2.665.943 2.124-4.195 3.335-8.928 3.335-13.943 0-17.094-13.906-31-31-31s-31 13.906-31 31 13.906 31 31 31c3.874 0 7.579-.722 11-2.025v-5.435c-3.344 1.57-7.067 2.46-11 2.46-14.337 0-26-11.663-26-26z"/><path d="m47.804 47c.511-1.43 1.8-2.542 3.277-2.882 2.474-3.773 3.919-8.279 3.919-13.118 0-13.233-10.767-24-24-24s-24 10.767-24 24 10.767 24 24 24c3.965 0 7.702-.979 11-2.69v-.31c0-2.757 2.243-5 5-5zm-2.804-6c0 2.757-2.243 5-5 5h-18c-2.757 0-5-2.243-5-5v-2c0-4.759 3.715-8.656 8.396-8.97-2.066-1.65-3.396-4.185-3.396-7.03 0-4.963 4.037-9 9-9s9 4.037 9 9c0 2.845-1.33 5.38-3.396 7.03 4.681.314 8.396 4.211 8.396 8.97z"/></g></g></svg>