<svg id="glipy" viewBox="0 0 64 64" xmlns="http://www.w3.org/2000/svg"><path d="m10.99868 41.50005a7.00613 7.00613 0 0 0 -6.99846 6.99847c0 3.56922 5.5888 10.37773 6.22861 11.13751a1.00321 1.00321 0 0 0 1.5397 0c.63982-.75978 6.22862-7.56829 6.22862-11.13751a7.00614 7.00614 0 0 0 -6.99847-6.99847zm0 9.99781a2.99934 2.99934 0 1 1 2.99932-2.99934 3.00172 3.00172 0 0 1 -2.99932 2.99934z"/><path d="m52.98948 41.50005a7.00614 7.00614 0 0 0 -6.99848 6.99847c0 3.56922 5.5888 10.37773 6.22862 11.13751a1.00321 1.00321 0 0 0 1.5397 0c.63981-.75978 6.22861-7.56829 6.22861-11.13751a7.00613 7.00613 0 0 0 -6.99845-6.99847zm0 9.99781a2.99934 2.99934 0 1 1 2.99934-2.99934 3.00172 3.00172 0 0 1 -2.99934 2.99934z"/><path d="m34.40334 33.33174c.12-.02887 6.75554-11.52122 6.9787-11.36745l16.03646-4.09907a3.06881 3.06881 0 0 0 -.82984-6.07869 1.135 1.135 0 0 1 -.7898-.24994l-1.50968-1.26968a6.92684 6.92684 0 0 0 -5.83868-1.49967l-34.01257 10.20776a2.01611 2.01611 0 0 1 -2.06955-.82984l-1.90956-2.78936a2.99119 2.99119 0 0 0 -2.73945-1.29971l-2.80932.24991a1.00748 1.00748 0 0 0 -.78987 1.46965l3.64923 6.64857a7.96946 7.96946 0 0 0 8.66808 4.32906l13.627-2.61942-2.43949 8.84804a1.00006 1.00006 0 0 0 .95981 1.26974.27626.27626 0 0 0 .09-.01l4.95894-.4299a1.00486 1.00486 0 0 0 .76959-.48z"/><path d="m28.42485 12.68636 8.48815-2.54943-5.03889-5.78877a1.00482 1.00482 0 0 0 -.83984-.33989l-4.96888.43991a1.0101 1.0101 0 0 0 -.77986.49989.9965.9965 0 0 0 -.04.91978z"/><path d="m22.37705 40.2258a21.56577 21.56577 0 0 0 -2.67227 1.54263.99978.99978 0 1 0 1.12085 1.65588 19.46257 19.46257 0 0 1 2.42237-1.39813 1 1 0 1 0 -.8709-1.80038z"/><path d="m41.63357 40.22482a.99967.99967 0 1 0 -.85724 1.80624 18.45874 18.45874 0 0 1 2.42525 1.38544.99952.99952 0 1 0 1.12281-1.65393 20.38222 20.38222 0 0 0 -2.69082-1.53775z"/><path d="m33.55917 38.06123a20.4223 20.4223 0 0 0 -3.09991-.01367.99954.99954 0 0 0 .14645 1.99371c.91191-.0664 2.848.01659 2.87437.01659a.99991.99991 0 0 0 .07909-1.99663z"/></svg>