<svg width="50" height="50" viewBox="0 0 50 50" fill="none" xmlns="http://www.w3.org/2000/svg">
<g clip-path="url(#clip0_47_11)">
<path d="M25 0.5C38.5093 0.5 49.5 11.4907 49.5 25C49.5 38.5093 38.5093 49.5 25 49.5C11.4907 49.5 0.5 38.5093 0.5 25C0.5 11.4907 11.4907 0.5 25 0.5ZM22.6602 12.7568C21.7135 11.8102 20.2183 11.7508 19.2031 12.5791L19.0068 12.7568C18.0601 13.7036 18.0007 15.1987 18.8291 16.2139L19.0068 16.4102L27.5967 25L19.0068 33.5898C18.0601 34.5365 18.0008 36.0317 18.8291 37.0469L19.0068 37.2432C19.5103 37.7466 20.1723 37.9999 20.833 38C21.4114 38 21.9907 37.8058 22.4639 37.4199L22.6602 37.2432L33.0762 26.8262C34.0228 25.8794 34.0822 24.3853 33.2539 23.3701L33.0762 23.1738L22.6602 12.7568Z" fill="#FFDD00" fill-opacity="0.29" stroke="#FFDD00"/>
</g>
<defs>
<clipPath id="clip0_47_11">
<rect width="50" height="50" fill="white"/>
</clipPath>
</defs>
</svg>
