<svg height="512" viewBox="0 0 512 512" width="512" xmlns="http://www.w3.org/2000/svg"><g id="Layer_28" data-name="Layer 28"><rect fill="#e0e0e0" height="336" rx="40" width="480" x="19.499" y="91.5"/><path d="m259.499 187.5h240v48h-240z" fill="#b73831"/><path d="m307.5 211.5h192v-24h-216a24 24 0 0 0 24 24z" fill="#d4483f"/><path d="m307.5 163.5h192v-24h-216a24 24 0 0 0 24 24z" fill="#f5f5f5"/><path d="m307.5 259.5h192v-24h-216a24 24 0 0 0 24 24z" fill="#f5f5f5"/><g fill="#b73831"><path d="m19.499 283.5h480v48h-480z"/><path d="m19.5 387.5a40 40 0 0 0 40 40h400a40 40 0 0 0 40-40v-8h-480z"/><path d="m459.5 91.5h-200v48h240v-8a40 40 0 0 0 -40-40z"/></g><path d="m259.5 283.5v-192h-200a40 40 0 0 0 -40 40v152z" fill="#2b66ba"/><path d="m43.5 94.877v132.623a32 32 0 0 0 32 32h184v-168h-200a39.781 39.781 0 0 0 -16 3.377z" fill="#3477cc"/><path d="m67.469 123.5 7.425 15.801 16.605 2.533-12.015 12.299 2.836 17.367-14.851-8.199-14.852 8.199 2.837-17.367-12.015-12.299 16.604-2.533z" fill="#e0e0e0"/><path d="m74.894 139.3-7.395-15.737v39.754l14.821 8.183-2.836-17.367 12.015-12.299z" fill="#fff"/><path d="m139.469 123.5 7.425 15.801 16.605 2.533-12.015 12.299 2.836 17.367-14.851-8.199-14.852 8.199 2.837-17.367-12.015-12.299 16.604-2.533z" fill="#e0e0e0"/><path d="m146.894 139.3-7.395-15.737v39.754l14.821 8.183-2.836-17.367 12.015-12.299z" fill="#fff"/><path d="m211.469 123.5 7.425 15.801 16.605 2.533-12.015 12.299 2.836 17.367-14.851-8.199-14.852 8.199 2.837-17.367-12.015-12.299 16.604-2.533z" fill="#e0e0e0"/><path d="m218.894 139.3-7.395-15.737v39.754l14.821 8.183-2.836-17.367 12.015-12.299z" fill="#fff"/><path d="m67.469 203.5 7.425 15.801 16.605 2.533-12.015 12.299 2.836 17.367-14.851-8.199-14.852 8.199 2.837-17.367-12.015-12.299 16.604-2.533z" fill="#e0e0e0"/><path d="m74.894 219.3-7.395-15.737v39.754l14.821 8.183-2.836-17.367 12.015-12.299z" fill="#fff"/><path d="m139.469 203.5 7.425 15.801 16.605 2.533-12.015 12.299 2.836 17.367-14.851-8.199-14.852 8.199 2.837-17.367-12.015-12.299 16.604-2.533z" fill="#e0e0e0"/><path d="m146.894 219.3-7.395-15.737v39.754l14.821 8.183-2.836-17.367 12.015-12.299z" fill="#fff"/><path d="m211.469 203.5 7.425 15.801 16.605 2.533-12.015 12.299 2.836 17.367-14.851-8.199-14.852 8.199 2.837-17.367-12.015-12.299 16.604-2.533z" fill="#e0e0e0"/><path d="m218.894 219.3-7.395-15.737v39.754l14.821 8.183-2.836-17.367 12.015-12.299z" fill="#fff"/><path d="m307.5 115.5h188.622a39.976 39.976 0 0 0 -36.623-24h-176a24 24 0 0 0 24.001 24z" fill="#d4483f"/><path d="m69.066 307.374h430.434v-23.874h-456c0 13.255 10.744 24 25.566 23.874z" fill="#d4483f"/><path d="m43.5 379.5c0 13.255 10.745 24 25.568 23.874h427.122a39.8 39.8 0 0 0 3.31-15.874v-8z" fill="#d4483f"/><path d="m69.066 355.374h430.434v-23.874h-456c0 13.255 10.744 24 25.566 23.874z" fill="#f5f5f5"/></g></svg>